<svg xmlns="http://www.w3.org/2000/svg" viewBox="0 0 1920 1080" role="img" aria-label="SafariLens AR welcome background">
  <defs>
    <linearGradient id="sky" x1="0" y1="0" x2="0" y2="1">
      <stop offset="0%" stop-color="#0b1e2c"/>
      <stop offset="55%" stop-color="#123a43"/>
      <stop offset="100%" stop-color="#183b2f"/>
    </linearGradient>
    <radialGradient id="sun" cx="0.82" cy="0.14" r="0.22">
      <stop offset="0%" stop-color="#ffd170" stop-opacity="0.95"/>
      <stop offset="45%" stop-color="#ffae3d" stop-opacity="0.55"/>
      <stop offset="100%" stop-color="#ff8d2a" stop-opacity="0"/>
    </radialGradient>
    <radialGradient id="glowA" cx="0.14" cy="0.18" r="0.28">
      <stop offset="0%" stop-color="#30f3bf" stop-opacity="0.48"/>
      <stop offset="100%" stop-color="#30f3bf" stop-opacity="0"/>
    </radialGradient>
    <radialGradient id="glowB" cx="0.72" cy="0.88" r="0.34">
      <stop offset="0%" stop-color="#3f9fff" stop-opacity="0.38"/>
      <stop offset="100%" stop-color="#3f9fff" stop-opacity="0"/>
    </radialGradient>
    <linearGradient id="hillA" x1="0" y1="0" x2="1" y2="1">
      <stop offset="0%" stop-color="#1a6d55"/>
      <stop offset="100%" stop-color="#0d3e31"/>
    </linearGradient>
    <linearGradient id="hillB" x1="0" y1="0" x2="1" y2="1">
      <stop offset="0%" stop-color="#24936e"/>
      <stop offset="100%" stop-color="#145944"/>
    </linearGradient>
    <linearGradient id="river" x1="0" y1="0" x2="0.9" y2="1">
      <stop offset="0%" stop-color="#6ec7ff"/>
      <stop offset="100%" stop-color="#2f8fce"/>
    </linearGradient>
  </defs>

  <rect width="1920" height="1080" fill="url(#sky)"/>
  <rect width="1920" height="1080" fill="url(#sun)"/>
  <rect width="1920" height="1080" fill="url(#glowA)"/>
  <rect width="1920" height="1080" fill="url(#glowB)"/>

  <g opacity="0.2" fill="#dff7ee">
    <circle cx="130" cy="110" r="2.5"/>
    <circle cx="380" cy="180" r="1.6"/>
    <circle cx="640" cy="120" r="2"/>
    <circle cx="840" cy="90" r="1.7"/>
    <circle cx="1060" cy="150" r="2.2"/>
    <circle cx="1280" cy="110" r="1.8"/>
    <circle cx="1480" cy="180" r="2.4"/>
    <circle cx="1690" cy="125" r="1.9"/>
  </g>

  <path d="M0,760 C210,620 460,640 700,760 C940,880 1180,880 1420,760 C1630,650 1770,645 1920,690 L1920,1080 L0,1080 Z" fill="url(#hillA)"/>
  <path d="M0,840 C220,700 470,730 700,850 C930,970 1170,970 1410,840 C1615,730 1760,720 1920,760 L1920,1080 L0,1080 Z" fill="url(#hillB)" opacity="0.95"/>

  <path d="M1190,1080 C1270,880 1300,760 1280,640 C1260,520 1180,460 1060,420 C930,380 840,320 820,220 C760,340 780,470 880,570 C980,670 1010,760 980,860 C955,940 890,1010 790,1080 Z" fill="url(#river)" opacity="0.82"/>

  <g transform="translate(220,520)" fill="#0a2f24" opacity="0.95">
    <rect x="-16" y="58" width="32" height="165" rx="12"/>
    <ellipse cx="0" cy="35" rx="84" ry="58" fill="#165740"/>
    <ellipse cx="-22" cy="12" rx="52" ry="36" fill="#1b6a4e"/>
    <ellipse cx="30" cy="3" rx="42" ry="30" fill="#207957"/>
  </g>

  <g transform="translate(1580,520)" fill="#0a2f24" opacity="0.95">
    <rect x="-15" y="60" width="30" height="155" rx="11"/>
    <ellipse cx="0" cy="40" rx="72" ry="52" fill="#13543e"/>
    <ellipse cx="-18" cy="18" rx="44" ry="31" fill="#1b6a4d"/>
    <ellipse cx="26" cy="10" rx="35" ry="25" fill="#207957"/>
  </g>

  <g transform="translate(510,740)" fill="#0f3f30" opacity="0.92">
    <path d="M0,0 C48,-32 92,-28 136,0 C94,20 44,18 0,0 Z"/>
    <ellipse cx="68" cy="-8" rx="26" ry="16" fill="#154f3a"/>
    <rect x="58" y="-20" width="15" height="18" rx="6"/>
    <circle cx="128" cy="0" r="9" fill="#154f3a"/>
  </g>

  <g transform="translate(860,790)" fill="#0f3f30" opacity="0.92">
    <ellipse cx="88" cy="0" rx="94" ry="25" fill="#124634"/>
    <rect x="48" y="-30" width="16" height="28" rx="6"/>
    <rect x="112" y="-30" width="16" height="28" rx="6"/>
    <ellipse cx="90" cy="-30" rx="44" ry="27" fill="#185a43"/>
    <circle cx="134" cy="-40" r="13" fill="#185a43"/>
  </g>

  <g transform="translate(1270,770)" fill="#0d392b" opacity="0.95">
    <ellipse cx="72" cy="0" rx="80" ry="21" fill="#104432"/>
    <rect x="38" y="-28" width="13" height="24" rx="5"/>
    <rect x="88" y="-28" width="13" height="24" rx="5"/>
    <ellipse cx="68" cy="-30" rx="35" ry="23" fill="#1a6349"/>
    <circle cx="102" cy="-44" r="11" fill="#1a6349"/>
  </g>

  <g opacity="0.2" fill="#e6fff4">
    <path d="M1180 210 l26 18 -26 18 -26 -18 z"/>
    <path d="M420 250 l20 14 -20 14 -20 -14 z"/>
    <path d="M1520 250 l24 16 -24 16 -24 -16 z"/>
    <path d="M980 150 l18 13 -18 13 -18 -13 z"/>
  </g>
</svg>
